<?xml version="1.0" encoding="UTF-8"?>
<svg id="Layer_1" data-name="Layer 1" xmlns="http://www.w3.org/2000/svg" viewBox="0 0 48 48">
  <defs>
    <style>
      .cls-1 {
        stroke-width: 2px;
      }
    </style>
  </defs>
  <path class="cls-1" d="M29.164,38.909c-8.686-.86-15.598-8.069-16.13-16.78-.569-9.328,5.972-17.228,14.716-18.821.551-.1.565-.89.013-.986-1.529-.264-3.112-.371-4.733-.301C11.873,2.502,2.693,11.524,2.039,22.674c-.748,12.751,9.372,23.326,21.961,23.326,7.606,0,14.307-3.861,18.258-9.729.315-.467-.259-1.012-.715-.682-3.419,2.475-7.741,3.778-12.379,3.319Z"/>
  <path class="cls-1" d="M35.507,8.522l.574-1.253c.164-.358.673-.358.837,0l.574,1.253c.2.436.549.785.985.985l1.253.574c.358.164.358.673,0,.837l-1.253.574c-.436.2-.785.549-.985.985l-.574,1.253c-.164.358-.673.358-.837,0l-.574-1.253c-.2-.436-.549-.785-.985-.985l-1.253-.574c-.358-.164-.358-.673,0-.837l1.253-.574c.436-.2.785-.549.985-.985Z"/>
  <path class="cls-1" d="M26.507,17.522l.574-1.253c.164-.358.673-.358.837,0l.574,1.253c.2.436.549.785.985.985l1.253.574c.358.164.358.673,0,.837l-1.253.574c-.436.2-.785.549-.985.985l-.574,1.253c-.164.358-.673.358-.837,0l-.574-1.253c-.2-.436-.549-.785-.985-.985l-1.253-.574c-.358-.164-.358-.673,0-.837l1.253-.574c.436-.2.785-.549.985-.985Z"/>
  <path class="cls-1" d="M41.507,23.522l.574-1.253c.164-.358.673-.358.837,0l.574,1.253c.2.436.549.785.985.985l1.253.574c.358.164.358.673,0,.837l-1.253.574c-.436.2-.785.549-.985.985l-.574,1.253c-.164.358-.673.358-.837,0l-.574-1.253c-.2-.436-.549-.785-.985-.985l-1.253-.574c-.358-.164-.358-.673,0-.837l1.253-.574c.436-.2.785-.549.985-.985Z"/>
</svg>
